<svg xmlns="http://www.w3.org/2000/svg" xmlns:xlink="http://www.w3.org/1999/xlink" contentStyleType="text/css" height="910px" preserveAspectRatio="none" style="width:2370px;height:910px;background:#FFFFFF;" version="1.1" viewBox="0 0 2370 910" width="2370px" zoomAndPan="magnify"><title>Database ERD - Portfolio Management System</title><defs/><g><text fill="#000000" font-family="sans-serif" font-size="14" font-weight="bold" lengthAdjust="spacing" textLength="334.3799" x="1011.307" y="23.5352">Database ERD - Portfolio Management System</text><!--class instrument--><g id="elem_instrument"><rect codeLine="10" fill="#F1F1F1" height="212.8828" id="instrument" rx="2.5" ry="2.5" style="stroke:#181818;stroke-width:0.5;" width="253.4521" x="606.95" y="690.2083"/><ellipse cx="692.2659" cy="706.2083" fill="#ADD1B2" rx="11" ry="11" style="stroke:#181818;stroke-width:1;"/><path d="M695.8802,712.7083 L688.1604,712.7083 L688.1604,700.3152 L695.8802,700.3152 L695.8802,702.4734 L690.6092,702.4734 L690.6092,705.1463 L695.3821,705.1463 L695.3821,707.3045 L690.6092,707.3045 L690.6092,710.5501 L695.8802,710.5501 Z " fill="#000000"/><text fill="#000000" font-family="sans-serif" font-size="14" lengthAdjust="spacing" textLength="74.3203" x="712.7659" y="711.4993">instrument</text><line style="stroke:#181818;stroke-width:0.5;" x1="607.95" x2="859.4021" y1="722.2083" y2="722.2083"/><text fill="#000000" font-family="sans-serif" font-size="14" font-weight="bold" lengthAdjust="spacing" textLength="13.8291" x="612.95" y="739.7434">id</text><text fill="#000000" font-family="sans-serif" font-size="14" lengthAdjust="spacing" textLength="54.291" x="626.7791" y="739.7434">: BIGINT</text><line style="stroke:#181818;stroke-width:1;" x1="607.95" x2="859.4021" y1="746.6966" y2="746.6966"/><text fill="#000000" font-family="sans-serif" font-size="14" lengthAdjust="spacing" textLength="207.4707" x="612.95" y="764.2317">symbol: VARCHAR(20) UNIQUE</text><text fill="#000000" font-family="sans-serif" font-size="14" lengthAdjust="spacing" textLength="147.9639" x="612.95" y="780.72">name: VARCHAR(255)</text><text fill="#000000" font-family="sans-serif" font-size="14" lengthAdjust="spacing" textLength="241.4521" x="612.95" y="797.2083">instrument_category: VARCHAR(50)</text><text fill="#000000" font-family="sans-serif" font-size="14" lengthAdjust="spacing" textLength="189.7383" x="612.95" y="813.6966">base_currency: VARCHAR(3)</text><text fill="#000000" font-family="sans-serif" font-size="14" lengthAdjust="spacing" textLength="211.7363" x="612.95" y="830.1848">provider_name: VARCHAR(255)</text><text fill="#000000" font-family="sans-serif" font-size="14" lengthAdjust="spacing" textLength="209.665" x="612.95" y="846.6731">current_price: NUMERIC(20,10)</text><text fill="#000000" font-family="sans-serif" font-size="14" lengthAdjust="spacing" textLength="81.334" x="612.95" y="863.1614">version: INT</text><text fill="#000000" font-family="sans-serif" font-size="14" lengthAdjust="spacing" textLength="157.4863" x="612.95" y="879.6497">created_at: TIMESTAMP</text><text fill="#000000" font-family="sans-serif" font-size="14" lengthAdjust="spacing" textLength="163.0986" x="612.95" y="896.138">updated_at: TIMESTAMP</text></g><!--class transaction--><g id="elem_transaction"><rect codeLine="24" fill="#F1F1F1" height="278.8359" id="transaction" rx="2.5" ry="2.5" style="stroke:#181818;stroke-width:0.5;" width="263.3506" x="7" y="334.3683"/><ellipse cx="63.5195" cy="350.3683" fill="#ADD1B2" rx="11" ry="11" style="stroke:#181818;stroke-width:1;"/><path d="M67.1338,356.8683 L59.4141,356.8683 L59.4141,344.4752 L67.1338,344.4752 L67.1338,346.6334 L61.8628,346.6334 L61.8628,349.3063 L66.6357,349.3063 L66.6357,351.4645 L61.8628,351.4645 L61.8628,354.7101 L67.1338,354.7101 Z " fill="#000000"/><text fill="#000000" font-family="sans-serif" font-size="14" lengthAdjust="spacing" textLength="141.8115" x="84.0195" y="355.6593">portfolio_transaction</text><line style="stroke:#181818;stroke-width:0.5;" x1="8" x2="269.3506" y1="366.3683" y2="366.3683"/><text fill="#000000" font-family="sans-serif" font-size="14" font-weight="bold" lengthAdjust="spacing" textLength="13.8291" x="13" y="383.9034">id</text><text fill="#000000" font-family="sans-serif" font-size="14" lengthAdjust="spacing" textLength="54.291" x="26.8291" y="383.9034">: BIGINT</text><line style="stroke:#181818;stroke-width:1;" x1="8" x2="269.3506" y1="390.8566" y2="390.8566"/><text fill="#000000" font-family="sans-serif" font-size="14" font-style="italic" lengthAdjust="spacing" textLength="94.1787" x="13" y="408.3917">instrument_id</text><text fill="#000000" font-family="sans-serif" font-size="14" lengthAdjust="spacing" textLength="54.291" x="107.1787" y="408.3917">: BIGINT</text><text fill="#000000" font-family="sans-serif" font-size="14" lengthAdjust="spacing" textLength="213.9785" x="13" y="424.88">transaction_type: VARCHAR(10)</text><text fill="#000000" font-family="sans-serif" font-size="14" lengthAdjust="spacing" textLength="160.1934" x="13" y="441.3683">platform: VARCHAR(50)</text><text fill="#000000" font-family="sans-serif" font-size="14" lengthAdjust="spacing" textLength="175.8203" x="13" y="457.8566">quantity: NUMERIC(20,10)</text><text fill="#000000" font-family="sans-serif" font-size="14" lengthAdjust="spacing" textLength="153.624" x="13" y="474.3448">price: NUMERIC(20,10)</text><text fill="#000000" font-family="sans-serif" font-size="14" lengthAdjust="spacing" textLength="201.6328" x="13" y="490.8331">commission: NUMERIC(20,10)</text><text fill="#000000" font-family="sans-serif" font-size="14" lengthAdjust="spacing" textLength="158.0195" x="13" y="507.3214">transaction_date: DATE</text><text fill="#000000" font-family="sans-serif" font-size="14" lengthAdjust="spacing" textLength="251.3506" x="13" y="523.8097">remaining_quantity: NUMERIC(20,10)</text><text fill="#000000" font-family="sans-serif" font-size="14" lengthAdjust="spacing" textLength="218.627" x="13" y="540.298">realized_profit: NUMERIC(20,10)</text><text fill="#000000" font-family="sans-serif" font-size="14" lengthAdjust="spacing" textLength="236.0039" x="13" y="556.7863">unrealized_profit: NUMERIC(20,10)</text><text fill="#000000" font-family="sans-serif" font-size="14" lengthAdjust="spacing" textLength="207.9766" x="13" y="573.2745">average_cost: NUMERIC(20,10)</text><text fill="#000000" font-family="sans-serif" font-size="14" lengthAdjust="spacing" textLength="157.4863" x="13" y="589.7628">created_at: TIMESTAMP</text><text fill="#000000" font-family="sans-serif" font-size="14" lengthAdjust="spacing" textLength="163.0986" x="13" y="606.2511">updated_at: TIMESTAMP</text></g><!--class price--><g id="elem_price"><rect codeLine="42" fill="#F1F1F1" height="253.8594" id="price" rx="2.5" ry="2.5" style="stroke:#181818;stroke-width:0.5;" width="357.6523" x="554.85" y="346.8583"/><ellipse cx="693.1718" cy="362.8583" fill="#ADD1B2" rx="11" ry="11" style="stroke:#181818;stroke-width:1;"/><path d="M696.786,369.3583 L689.0663,369.3583 L689.0663,356.9652 L696.786,356.9652 L696.786,359.1234 L691.515,359.1234 L691.515,361.7963 L696.288,361.7963 L696.288,363.9545 L691.515,363.9545 L691.515,367.2001 L696.786,367.2001 Z " fill="#000000"/><text fill="#000000" font-family="sans-serif" font-size="14" lengthAdjust="spacing" textLength="72.5088" x="713.6718" y="368.1493">daily_price</text><line style="stroke:#181818;stroke-width:0.5;" x1="555.85" x2="911.5023" y1="378.8583" y2="378.8583"/><text fill="#000000" font-family="sans-serif" font-size="14" font-weight="bold" lengthAdjust="spacing" textLength="13.8291" x="560.85" y="396.3934">id</text><text fill="#000000" font-family="sans-serif" font-size="14" lengthAdjust="spacing" textLength="54.291" x="574.6791" y="396.3934">: BIGINT</text><line style="stroke:#181818;stroke-width:1;" x1="555.85" x2="911.5023" y1="403.3466" y2="403.3466"/><text fill="#000000" font-family="sans-serif" font-size="14" font-style="italic" lengthAdjust="spacing" textLength="94.1787" x="560.85" y="420.8817">instrument_id</text><text fill="#000000" font-family="sans-serif" font-size="14" lengthAdjust="spacing" textLength="54.291" x="655.0287" y="420.8817">: BIGINT</text><text fill="#000000" font-family="sans-serif" font-size="14" lengthAdjust="spacing" textLength="116.792" x="560.85" y="437.37">entry_date: DATE</text><text fill="#000000" font-family="sans-serif" font-size="14" lengthAdjust="spacing" textLength="211.7363" x="560.85" y="453.8583">provider_name: VARCHAR(255)</text><text fill="#000000" font-family="sans-serif" font-size="14" lengthAdjust="spacing" textLength="194.5234" x="560.85" y="470.3466">open_price: NUMERIC(20,10)</text><text fill="#000000" font-family="sans-serif" font-size="14" lengthAdjust="spacing" textLength="190.7773" x="560.85" y="486.8348">high_price: NUMERIC(20,10)</text><text fill="#000000" font-family="sans-serif" font-size="14" lengthAdjust="spacing" textLength="184.0576" x="560.85" y="503.3231">low_price: NUMERIC(20,10)</text><text fill="#000000" font-family="sans-serif" font-size="14" lengthAdjust="spacing" textLength="195.3779" x="560.85" y="519.8114">close_price: NUMERIC(20,10)</text><text fill="#000000" font-family="sans-serif" font-size="14" lengthAdjust="spacing" textLength="103.7422" x="560.85" y="536.2997">volume: BIGINT</text><text fill="#000000" font-family="sans-serif" font-size="14" lengthAdjust="spacing" textLength="157.4863" x="560.85" y="552.788">created_at: TIMESTAMP</text><text fill="#000000" font-family="sans-serif" font-size="14" lengthAdjust="spacing" textLength="163.0986" x="560.85" y="569.2763">updated_at: TIMESTAMP</text><line style="stroke:#181818;stroke-width:1;" x1="555.85" x2="911.5023" y1="576.2294" y2="576.2294"/><text fill="#000000" font-family="sans-serif" font-size="14" lengthAdjust="spacing" textLength="345.6523" x="560.85" y="593.7645">UNIQUE(instrument_id, entry_date, provider_name)</text></g><!--class summary--><g id="elem_summary"><rect codeLine="59" fill="#F1F1F1" height="212.8828" id="summary" rx="2.5" ry="2.5" style="stroke:#181818;stroke-width:0.5;" width="257.6016" x="1652.87" y="44.4883"/><ellipse cx="1694.0122" cy="60.4883" fill="#ADD1B2" rx="11" ry="11" style="stroke:#181818;stroke-width:1;"/><path d="M1697.6264,66.9883 L1689.9067,66.9883 L1689.9067,54.5952 L1697.6264,54.5952 L1697.6264,56.7534 L1692.3554,56.7534 L1692.3554,59.4263 L1697.1284,59.4263 L1697.1284,61.5845 L1692.3554,61.5845 L1692.3554,64.8301 L1697.6264,64.8301 Z " fill="#000000"/><text fill="#000000" font-family="sans-serif" font-size="14" lengthAdjust="spacing" textLength="167.5078" x="1713.8216" y="65.7793">portfolio_daily_summary</text><line style="stroke:#181818;stroke-width:0.5;" x1="1653.87" x2="1909.4716" y1="76.4883" y2="76.4883"/><text fill="#000000" font-family="sans-serif" font-size="14" font-weight="bold" lengthAdjust="spacing" textLength="13.8291" x="1658.87" y="94.0234">id</text><text fill="#000000" font-family="sans-serif" font-size="14" lengthAdjust="spacing" textLength="54.291" x="1672.6991" y="94.0234">: BIGINT</text><line style="stroke:#181818;stroke-width:1;" x1="1653.87" x2="1909.4716" y1="100.9766" y2="100.9766"/><text fill="#000000" font-family="sans-serif" font-size="14" lengthAdjust="spacing" textLength="173.4619" x="1658.87" y="118.5117">entry_date: DATE UNIQUE</text><text fill="#000000" font-family="sans-serif" font-size="14" lengthAdjust="spacing" textLength="193.4297" x="1658.87" y="135">total_value: NUMERIC(20,10)</text><text fill="#000000" font-family="sans-serif" font-size="14" lengthAdjust="spacing" textLength="245.6016" x="1658.87" y="151.4883">xirr_annual_return: NUMERIC(20,10)</text><text fill="#000000" font-family="sans-serif" font-size="14" lengthAdjust="spacing" textLength="195.4873" x="1658.87" y="167.9766">total_profit: NUMERIC(20,10)</text><text fill="#000000" font-family="sans-serif" font-size="14" lengthAdjust="spacing" textLength="218.627" x="1658.87" y="184.4648">realized_profit: NUMERIC(20,10)</text><text fill="#000000" font-family="sans-serif" font-size="14" lengthAdjust="spacing" textLength="236.0039" x="1658.87" y="200.9531">unrealized_profit: NUMERIC(20,10)</text><text fill="#000000" font-family="sans-serif" font-size="14" lengthAdjust="spacing" textLength="238.8135" x="1658.87" y="217.4414">earnings_per_day: NUMERIC(20,10)</text><text fill="#000000" font-family="sans-serif" font-size="14" lengthAdjust="spacing" textLength="157.4863" x="1658.87" y="233.9297">created_at: TIMESTAMP</text><text fill="#000000" font-family="sans-serif" font-size="14" lengthAdjust="spacing" textLength="163.0986" x="1658.87" y="250.418">updated_at: TIMESTAMP</text></g><!--class etf_holding--><g id="elem_etf_holding"><rect codeLine="73" fill="#F1F1F1" height="196.3945" id="etf_holding" rx="2.5" ry="2.5" style="stroke:#181818;stroke-width:0.5;" width="228.3506" x="1132.5" y="52.7283"/><ellipse cx="1204.0278" cy="68.7283" fill="#ADD1B2" rx="11" ry="11" style="stroke:#181818;stroke-width:1;"/><path d="M1207.6421,75.2283 L1199.9224,75.2283 L1199.9224,62.8352 L1207.6421,62.8352 L1207.6421,64.9934 L1202.3711,64.9934 L1202.3711,67.6663 L1207.144,67.6663 L1207.144,69.8245 L1202.3711,69.8245 L1202.3711,73.0701 L1207.6421,73.0701 Z " fill="#000000"/><text fill="#000000" font-family="sans-serif" font-size="14" lengthAdjust="spacing" textLength="76.7949" x="1224.5278" y="74.0193">etf_holding</text><line style="stroke:#181818;stroke-width:0.5;" x1="1133.5" x2="1359.8506" y1="84.7283" y2="84.7283"/><text fill="#000000" font-family="sans-serif" font-size="14" font-weight="bold" lengthAdjust="spacing" textLength="13.8291" x="1138.5" y="102.2634">id</text><text fill="#000000" font-family="sans-serif" font-size="14" lengthAdjust="spacing" textLength="54.291" x="1152.3291" y="102.2634">: BIGINT</text><line style="stroke:#181818;stroke-width:1;" x1="1133.5" x2="1359.8506" y1="109.2166" y2="109.2166"/><text fill="#000000" font-family="sans-serif" font-size="14" font-style="italic" lengthAdjust="spacing" textLength="100.208" x="1138.5" y="126.7517">etf_position_id</text><text fill="#000000" font-family="sans-serif" font-size="14" lengthAdjust="spacing" textLength="54.291" x="1238.708" y="126.7517">: BIGINT</text><text fill="#000000" font-family="sans-serif" font-size="14" lengthAdjust="spacing" textLength="139.9863" x="1138.5" y="143.24">ticker: VARCHAR(20)</text><text fill="#000000" font-family="sans-serif" font-size="14" lengthAdjust="spacing" textLength="216.3506" x="1138.5" y="159.7283">company_name: VARCHAR(255)</text><text fill="#000000" font-family="sans-serif" font-size="14" lengthAdjust="spacing" textLength="152.3457" x="1138.5" y="176.2166">sector: VARCHAR(100)</text><text fill="#000000" font-family="sans-serif" font-size="14" lengthAdjust="spacing" textLength="166.3252" x="1138.5" y="192.7048">industry: VARCHAR(100)</text><text fill="#000000" font-family="sans-serif" font-size="14" lengthAdjust="spacing" textLength="156.502" x="1138.5" y="209.1931">weight: NUMERIC(10,4)</text><text fill="#000000" font-family="sans-serif" font-size="14" lengthAdjust="spacing" textLength="157.4863" x="1138.5" y="225.6814">created_at: TIMESTAMP</text><text fill="#000000" font-family="sans-serif" font-size="14" lengthAdjust="spacing" textLength="163.0986" x="1138.5" y="242.1697">updated_at: TIMESTAMP</text></g><!--class etf_position--><g id="elem_etf_position"><rect codeLine="86" fill="#F1F1F1" height="146.9297" id="etf_position" rx="2.5" ry="2.5" style="stroke:#181818;stroke-width:0.5;" width="187.9844" x="1152.68" y="400.3183"/><ellipse cx="1202.2474" cy="416.3183" fill="#ADD1B2" rx="11" ry="11" style="stroke:#181818;stroke-width:1;"/><path d="M1205.8616,422.8183 L1198.1419,422.8183 L1198.1419,410.4252 L1205.8616,410.4252 L1205.8616,412.5834 L1200.5906,412.5834 L1200.5906,415.2563 L1205.3636,415.2563 L1205.3636,417.4145 L1200.5906,417.4145 L1200.5906,420.6601 L1205.8616,420.6601 Z " fill="#000000"/><text fill="#000000" font-family="sans-serif" font-size="14" lengthAdjust="spacing" textLength="80.3496" x="1222.7474" y="421.6093">etf_position</text><line style="stroke:#181818;stroke-width:0.5;" x1="1153.68" x2="1339.6644" y1="432.3183" y2="432.3183"/><text fill="#000000" font-family="sans-serif" font-size="14" font-weight="bold" lengthAdjust="spacing" textLength="13.8291" x="1158.68" y="449.8534">id</text><text fill="#000000" font-family="sans-serif" font-size="14" lengthAdjust="spacing" textLength="54.291" x="1172.5091" y="449.8534">: BIGINT</text><line style="stroke:#181818;stroke-width:1;" x1="1153.68" x2="1339.6644" y1="456.8066" y2="456.8066"/><text fill="#000000" font-family="sans-serif" font-size="14" font-style="italic" lengthAdjust="spacing" textLength="94.1787" x="1158.68" y="474.3417">instrument_id</text><text fill="#000000" font-family="sans-serif" font-size="14" lengthAdjust="spacing" textLength="54.291" x="1252.8587" y="474.3417">: BIGINT</text><text fill="#000000" font-family="sans-serif" font-size="14" lengthAdjust="spacing" textLength="175.9844" x="1158.68" y="490.83">etf_symbol: VARCHAR(20)</text><text fill="#000000" font-family="sans-serif" font-size="14" lengthAdjust="spacing" textLength="174.2822" x="1158.68" y="507.3183">last_updated: TIMESTAMP</text><text fill="#000000" font-family="sans-serif" font-size="14" lengthAdjust="spacing" textLength="157.4863" x="1158.68" y="523.8066">created_at: TIMESTAMP</text><text fill="#000000" font-family="sans-serif" font-size="14" lengthAdjust="spacing" textLength="163.0986" x="1158.68" y="540.2948">updated_at: TIMESTAMP</text></g><!--class job--><g id="elem_job"><rect codeLine="96" fill="#F1F1F1" height="179.9063" id="job" rx="2.5" ry="2.5" style="stroke:#181818;stroke-width:0.5;" width="188.6338" x="2175.36" y="60.9783"/><ellipse cx="2217.9664" cy="76.9783" fill="#ADD1B2" rx="11" ry="11" style="stroke:#181818;stroke-width:1;"/><path d="M2221.5807,83.4783 L2213.861,83.4783 L2213.861,71.0852 L2221.5807,71.0852 L2221.5807,73.2434 L2216.3097,73.2434 L2216.3097,75.9163 L2221.0827,75.9163 L2221.0827,78.0745 L2216.3097,78.0745 L2216.3097,81.3201 L2221.5807,81.3201 Z " fill="#000000"/><text fill="#000000" font-family="sans-serif" font-size="14" lengthAdjust="spacing" textLength="95.2861" x="2238.1012" y="82.2693">job_execution</text><line style="stroke:#181818;stroke-width:0.5;" x1="2176.36" x2="2362.9938" y1="92.9783" y2="92.9783"/><text fill="#000000" font-family="sans-serif" font-size="14" font-weight="bold" lengthAdjust="spacing" textLength="13.8291" x="2181.36" y="110.5134">id</text><text fill="#000000" font-family="sans-serif" font-size="14" lengthAdjust="spacing" textLength="54.291" x="2195.1891" y="110.5134">: BIGINT</text><line style="stroke:#181818;stroke-width:1;" x1="2176.36" x2="2362.9938" y1="117.4666" y2="117.4666"/><text fill="#000000" font-family="sans-serif" font-size="14" lengthAdjust="spacing" textLength="176.6338" x="2181.36" y="135.0017">job_name: VARCHAR(255)</text><text fill="#000000" font-family="sans-serif" font-size="14" lengthAdjust="spacing" textLength="142.9873" x="2181.36" y="151.49">status: VARCHAR(50)</text><text fill="#000000" font-family="sans-serif" font-size="14" lengthAdjust="spacing" textLength="155.4629" x="2181.36" y="167.9783">start_time: TIMESTAMP</text><text fill="#000000" font-family="sans-serif" font-size="14" lengthAdjust="spacing" textLength="149.6934" x="2181.36" y="184.4666">end_time: TIMESTAMP</text><text fill="#000000" font-family="sans-serif" font-size="14" lengthAdjust="spacing" textLength="142.9053" x="2181.36" y="200.9548">error_message: TEXT</text><text fill="#000000" font-family="sans-serif" font-size="14" lengthAdjust="spacing" textLength="157.4863" x="2181.36" y="217.4431">created_at: TIMESTAMP</text><text fill="#000000" font-family="sans-serif" font-size="14" lengthAdjust="spacing" textLength="163.0986" x="2181.36" y="233.9314">updated_at: TIMESTAMP</text></g><g id="elem_GMN13"><path d="M894.96,776.3383 L894.96,792.6483 L860.81,796.6483 L894.96,800.6483 L894.96,816.9594 A0,0 0 0 0 894.96,816.9594 L1126.3848,816.9594 A0,0 0 0 0 1126.3848,816.9594 L1126.3848,786.3383 L1116.3848,776.3383 L894.96,776.3383 A0,0 0 0 0 894.96,776.3383 " fill="#FEFFDD" style="stroke:#181818;stroke-width:0.5;"/><path d="M1116.3848,776.3383 L1116.3848,786.3383 L1126.3848,786.3383 L1116.3848,776.3383 " fill="#FEFFDD" style="stroke:#181818;stroke-width:0.5;"/><text fill="#000000" font-family="sans-serif" font-size="13" lengthAdjust="spacing" textLength="210.4248" x="900.96" y="793.9066">Core entity: financial instruments</text><text fill="#000000" font-family="sans-serif" font-size="13" lengthAdjust="spacing" textLength="133.9292" x="900.96" y="809.2172">(stocks, ETFs, crypto)</text></g><g id="elem_GMN16"><path d="M305.66,453.4783 L305.66,469.7883 L270.59,473.7883 L305.66,477.7883 L305.66,494.0994 A0,0 0 0 0 305.66,494.0994 L519.6986,494.0994 A0,0 0 0 0 519.6986,494.0994 L519.6986,463.4783 L509.6986,453.4783 L305.66,453.4783 A0,0 0 0 0 305.66,453.4783 " fill="#FEFFDD" style="stroke:#181818;stroke-width:0.5;"/><path d="M509.6986,453.4783 L509.6986,463.4783 L519.6986,463.4783 L509.6986,453.4783 " fill="#FEFFDD" style="stroke:#181818;stroke-width:0.5;"/><text fill="#000000" font-family="sans-serif" font-size="13" lengthAdjust="spacing" textLength="178.2676" x="311.66" y="471.0466">Tracks buy/sell transactions</text><text fill="#000000" font-family="sans-serif" font-size="13" lengthAdjust="spacing" textLength="193.0386" x="311.66" y="486.3572">with realized/unrealized profit</text></g><g id="elem_GMN19"><path d="M947.4,453.4783 L947.4,469.7883 L912.96,473.7883 L947.4,477.7883 L947.4,494.0994 A0,0 0 0 0 947.4,494.0994 L1117.9571,494.0994 A0,0 0 0 0 1117.9571,494.0994 L1117.9571,463.4783 L1107.9571,453.4783 L947.4,453.4783 A0,0 0 0 0 947.4,453.4783 " fill="#FEFFDD" style="stroke:#181818;stroke-width:0.5;"/><path d="M1107.9571,453.4783 L1107.9571,463.4783 L1117.9571,463.4783 L1107.9571,453.4783 " fill="#FEFFDD" style="stroke:#181818;stroke-width:0.5;"/><text fill="#000000" font-family="sans-serif" font-size="13" lengthAdjust="spacing" textLength="146.2056" x="953.4" y="471.0466">Daily OHLCV price data</text><text fill="#000000" font-family="sans-serif" font-size="13" lengthAdjust="spacing" textLength="149.5571" x="953.4" y="486.3572">from multiple providers</text></g><g id="elem_GMN22"><path d="M1945.09,130.6183 L1945.09,146.9283 L1910.9,150.9283 L1945.09,154.9283 L1945.09,171.2394 A0,0 0 0 0 1945.09,171.2394 L2140.2697,171.2394 A0,0 0 0 0 2140.2697,171.2394 L2140.2697,140.6183 L2130.2697,130.6183 L1945.09,130.6183 A0,0 0 0 0 1945.09,130.6183 " fill="#FEFFDD" style="stroke:#181818;stroke-width:0.5;"/><path d="M2130.2697,130.6183 L2130.2697,140.6183 L2140.2697,140.6183 L2130.2697,130.6183 " fill="#FEFFDD" style="stroke:#181818;stroke-width:0.5;"/><text fill="#000000" font-family="sans-serif" font-size="13" lengthAdjust="spacing" textLength="174.1797" x="1951.09" y="148.1866">Daily portfolio performance</text><text fill="#000000" font-family="sans-serif" font-size="13" lengthAdjust="spacing" textLength="120.853" x="1951.09" y="163.4972">snapshot with XIRR</text></g><g id="elem_GMN25"><path d="M1395.68,130.6183 L1395.68,146.9283 L1361.19,150.9283 L1395.68,154.9283 L1395.68,171.2394 A0,0 0 0 0 1395.68,171.2394 L1617.6722,171.2394 A0,0 0 0 0 1617.6722,171.2394 L1617.6722,140.6183 L1607.6722,130.6183 L1395.68,130.6183 A0,0 0 0 0 1395.68,130.6183 " fill="#FEFFDD" style="stroke:#181818;stroke-width:0.5;"/><path d="M1607.6722,130.6183 L1607.6722,140.6183 L1617.6722,140.6183 L1607.6722,130.6183 " fill="#FEFFDD" style="stroke:#181818;stroke-width:0.5;"/><text fill="#000000" font-family="sans-serif" font-size="13" lengthAdjust="spacing" textLength="162.7349" x="1401.68" y="148.1866">Individual holdings within</text><text fill="#000000" font-family="sans-serif" font-size="13" lengthAdjust="spacing" textLength="200.9922" x="1401.68" y="163.4972">an ETF with sector classification</text></g><!--link transaction to instrument--><g id="link_transaction_instrument"><path codeLine="108" d="M277.3004,606.4114 C282.8904,610.4214 282.02,609.5983 287.68,613.2083 C387.79,677.1583 506.4757,723.753 599.0857,754.833 " fill="none" id="transaction-instrument" style="stroke:#181818;stroke-width:1;"/><line style="stroke:#181818;stroke-width:1;" x1="271.7187" x2="276.3818" y1="607.33" y2="600.8296"/><line style="stroke:#181818;stroke-width:1;" x1="274.1563" x2="278.8194" y1="609.0787" y2="602.5783"/><line style="stroke:#181818;stroke-width:1;" x1="277.3004" x2="270.8" y1="606.4114" y2="601.7483"/><line style="stroke:#181818;stroke-width:1;" x1="604.1505" x2="601.6052" y1="752.3135" y2="759.8978"/><line style="stroke:#181818;stroke-width:1;" x1="601.3064" x2="598.7611" y1="751.359" y2="758.9433"/><line style="stroke:#181818;stroke-width:1;" x1="599.0857" x2="606.67" y1="754.833" y2="757.3783"/><text fill="#000000" font-family="sans-serif" font-size="13" lengthAdjust="spacing" textLength="87.4517" x="368.52" y="656.7766">instrument_id</text></g><!--link price to instrument--><g id="link_price_instrument"><path codeLine="109" d="M733.68,609.1383 C733.68,638.5083 733.68,653.4883 733.68,681.8683 " fill="none" id="price-instrument" style="stroke:#181818;stroke-width:1;"/><line style="stroke:#181818;stroke-width:1;" x1="729.68" x2="737.68" y1="605.1383" y2="605.1383"/><line style="stroke:#181818;stroke-width:1;" x1="729.68" x2="737.68" y1="608.1383" y2="608.1383"/><line style="stroke:#181818;stroke-width:1;" x1="733.68" x2="733.68" y1="609.1383" y2="601.1383"/><line style="stroke:#181818;stroke-width:1;" x1="737.68" x2="729.68" y1="685.8683" y2="685.8683"/><line style="stroke:#181818;stroke-width:1;" x1="737.68" x2="729.68" y1="682.8683" y2="682.8683"/><line style="stroke:#181818;stroke-width:1;" x1="733.68" x2="733.68" y1="681.8683" y2="689.8683"/><text fill="#000000" font-family="sans-serif" font-size="13" lengthAdjust="spacing" textLength="87.4517" x="734.68" y="656.7766">instrument_id</text></g><!--link etf_position to instrument--><g id="link_etf_position_instrument"><path codeLine="110" d="M1196.6418,553.9322 C1178.7218,577.7622 1161.1,596.0883 1135.68,613.2083 C1036.41,680.0283 984.85,636.9683 877.68,690.2083 C871.99,693.0283 873.2495,692.1329 867.5695,695.3529 " fill="none" id="etf_position-instrument" style="stroke:#181818;stroke-width:1;"/><line style="stroke:#181818;stroke-width:1;" x1="1195.849" x2="1202.2429" y1="548.3311" y2="553.1393"/><line style="stroke:#181818;stroke-width:1;" x1="1194.0459" x2="1200.4398" y1="550.7288" y2="555.537"/><line style="stroke:#181818;stroke-width:1;" x1="1196.6418" x2="1201.45" y1="553.9322" y2="547.5383"/><line style="stroke:#181818;stroke-width:1;" x1="866.0624" x2="862.1171" y1="700.8054" y2="693.8459"/><line style="stroke:#181818;stroke-width:1;" x1="868.6722" x2="864.7269" y1="699.3258" y2="692.3664"/><line style="stroke:#181818;stroke-width:1;" x1="867.5695" x2="860.61" y1="695.3529" y2="699.2983"/><text fill="#000000" font-family="sans-serif" font-size="13" lengthAdjust="spacing" textLength="87.4517" x="1076.98" y="656.7766">instrument_id</text></g><!--link etf_holding to etf_position--><g id="link_etf_holding_etf_position"><path codeLine="111" d="M1246.68,257.5083 C1246.68,305.8983 1246.68,347.3683 1246.68,391.8783 " fill="none" id="etf_holding-etf_position" style="stroke:#181818;stroke-width:1;"/><line style="stroke:#181818;stroke-width:1;" x1="1246.68" x2="1240.68" y1="257.5083" y2="249.5083"/><line style="stroke:#181818;stroke-width:1;" x1="1246.68" x2="1252.68" y1="257.5083" y2="249.5083"/><line style="stroke:#181818;stroke-width:1;" x1="1246.68" x2="1246.68" y1="257.5083" y2="249.5083"/><line style="stroke:#181818;stroke-width:1;" x1="1242.68" x2="1250.68" y1="259.5083" y2="259.5083"/><line style="stroke:#181818;stroke-width:1;" x1="1250.68" x2="1242.68" y1="395.8783" y2="395.8783"/><line style="stroke:#181818;stroke-width:1;" x1="1250.68" x2="1242.68" y1="392.8783" y2="392.8783"/><line style="stroke:#181818;stroke-width:1;" x1="1246.68" x2="1246.68" y1="391.8783" y2="399.8783"/><text fill="#000000" font-family="sans-serif" font-size="13" lengthAdjust="spacing" textLength="93.0503" x="1247.68" y="300.9366">etf_position_id</text></g><!--SRC=[hLPBRziu4BxhLqpTYmtOIBgxkHX106_YR0qqsQxh5BqHj3IssL2aIb99j9l-zmubHwPSgNMpyS4GvyMPRrvybU1AA8G5NqhiAvxYC44R3o2Mt5hm1E0MUfxOWzDJw2-6hoyl9_GRmDbPz6ghdncHSbEmMopw3mCuNPuzd1ujT_oLDYZMgkOBpnTdKRGH2KAARgCJMnsiGuFQ5HdQA7B2IOGBxlYIMuJf_096y5uRjz9IQBZYYgynHUNWGq6AQHJHjt05z8IopkIUrVCHx8xmNmGDVqKo6CEVixzcrmlYZ4RqPujqgUKOFaxcvsydy_vlnmEukPxzSpCbfWSbO9sS38YuiyzYxd2jJR6JEJds8Zu25kV6e8e3vk-3qXzzHy4RrcgyKdACl8w9UtrpDPtFpichuPlIyXqQAxGQGnL2R91SI1XtOrZChgOV5fEhzqJFiwI5_dM7MVO4B7E6AyjZHrPB-8Bp8VY5wGwGQKe6DfbFzoxiAgfCSlB6fFiuVibvwMyB45q0nJfDXQqm-euP-k416iF5PE4JRJ3bGWcrPZ-uah2Mubz2bLAu4gv58bS_b-6KGgfa5clRndvsHXCkP57LJPd7ykl5CaWKij30xCU5h3DKdLMy4UjD9rFg-qvUB3LrLcTpQ9bxLsglVmtCBHvLzpUX60O039kH3zhRgag7pLCFVPcGxVSXATb7UpUHd7PSiZikypO07eGnZ2kLaun1bvlM9YXDTDRdorGvSkFRoRACO4fuyPALZcx5DbecPBy4DZZ_QhrxrKnRKKw4lPabubiqZSLGZPUCgwAzvYt6Jfjmk1rN2oF9gPQAxnZtvCScGE_DyV2F_utCKpWrD4-4bvi5PBHbRVhMvTQnhPTDrvyTqcUzPFY0SLx7H9H3Gl6AxLbotELsVzKGrJZcX5S87KILj56DqOQbQ2sDSc9DFprh6uUxzl5nD7fy35ylu_1fGpdeHTLCFqIoaVX35PwQw6ibtx0nRbPNgHCfxH2CBsBGgy0-nNnEbGIuNQNqCEGg5bm6CfQ4-jRf-DOEORgufF_O59dJ0yfz0jxq_WK1NAIyC9nqOPaNHnQb3BdUzhrmctgO7Urc5bGpg_EI4cFIl_037Fv- - -xyutQNKXAvxn6ZKqXpwKGciTu5jjFWTkxN9kiT0JGR_Qk7eF4NMiKpkz6kylpJR3xlD1aaYnHdAX7a0mrzs19jQKDubBZou5Osg_bKFVZ5Ij3hrIDPN_8D]--></g></svg>